<?xml version="1.0" encoding="UTF-8"?>
<svg width="13in" height="18in" clip-rule="evenodd" fill-rule="evenodd" image-rendering="optimizeQuality" shape-rendering="geometricPrecision" text-rendering="geometricPrecision" version="1.1" viewBox="0 0 13000 18000" xmlns="http://www.w3.org/2000/svg">
 <defs>
  <style type="text/css">.fil0 {fill:black}</style>
 </defs>
 <path class="fil0" d="m9575 20211c-12 1-15 2-25 4l-4-15c-22 0-15-2-29-7-9 4-5 4-8 5-19 8-21-5-22-23 21-15 26-14 53-20 26-6 36-7 66-11s107 2 137 11c-5 21-65 28-80 31l-47 10c-21 3-30 1-41 15zm-167-123c12-24 53-25 80-30 12-2 20-5 32-7-7 38-2 31 32 42 52 17 47 3 47 28-33-3-22 0-35 3-12 3-20 5-33 4l-5-8c0-1-1-2-1-3-17 3-102 0-117-29zm-936-80c6-6 13-5 22-5 1 14 2 28 2 42 1 13 4 16 4 34 1 0 2-1 3-1l5-4h1c3 4 3 4 5 7-23 12-20 14-55 10l13-15v-68zm1191 6c6-15-3-23 50-26 23-1 53-3 76 1 40 7 100 6 93 60-23 11-48 1-55 32-21 2-45 10-68 11-26 2-51 2-77 4l-7-11c-39-4-99 0-131-29l22-23c32-19 59-22 97-19zm-683 83c1-29 27-45 48-51 13-3 30 0 42-7 14-7 18-9 35-14-6 15-5 11 0 26 19-3 18-10 13-28 85 4 69 30 88 42 17 10 72-1 78 48-6 2-12 16-56 20l-7-12c-12 3 2 1-9 9-7 2-15 4-24 10 0-1 1-4 2-6-50 2 3-6-59 2 3-12 6-16 0-27-19 9-14 15-13 36-35-4-53 6-82-12-34-22-32-31-41-52-28 6-17 42 17 64 43 27 72 29 124 15 43-11 16-3 45-3 51 0 54 1 97-12-36 56-122 36-148 43-15 4-8 5-20 9-7 2-17 4-18 3-37-2-49 0-90-15-13-5-26-5-34-16-22-25-7-25-4-33-6-11-6-3-4-20 0-5 3-16 4-21 8 6 4 3 16 2zm-526-91l3 82c-20 9-33 3-66-2-18-29-5-20-12-43-6-18-10-20-10-43 9-7 13-5 22-2 0 15 0 28 1 42 2 34-2 36 12 38l6-2c3-10-1-54-1-72l45 2zm192-34c3-19 25-9 35-5l-35 5zm-9 148v21c-7-2-17-4-21-10-3-5-2-10-4-13-4-9 2-3-8-6-7 12-1 12-5 25-26 1-61-35-63-44 9 1 15 7 23 11 26 13 91 4 99-1l73 16c30-1 50-3 60-24-35 4-59 1-76 3 2-23 2-3 11-22-12 3-17 5-27 9-3 1-1 1-7 3-1 0-4 1-6 1-18 3-31-2-45-3-25-2-58 16-100-20-6-5-11-10-15-14-4-34 17-20 11-45-13-3-8 6-24 9v-18c52-15 74 1 68-31-39 1-68 10-105 13-30 3-85-1-106-18l5-24c18-4 20-8 31-22l27-26c11-13 43-37 64-38 36-3 71 55 92 78 6 8 12 9 26 11 6 13 9 10 10 19 2 19-9 29 21 30 7 1 12 1 15 1 5 0 16-4 19-4 16-2 5 1 16 3 20 4 60 0 83 3 37 4 42-2 72 16 22 13 36 25 29 56-4 4-6 6-12 10-11-2-9-4-21-7l-4 15c-12 3-27 5-36 12l3 12c18 3 28-1 45-2 1 18 3 11-8 19-14 10-39 12-58 15l-89 4c-6-9-5-10-16-13l-3 7-1 2c0 1-1 3-1 3 0-1-1 1-2 2-39 0-16-20-40-24zm1033-141c-6-8-11-22-6-34l6 34zm-106-42c16-1 64 9 77 16l2 24-80-21 1-19zm156-2c3 20 2 16 1 34l-35 6c2-18 0-19 1-33l33-7zm-587 62c1-20-3-37-10-52 20 7 6 9 37 9 13 0 28-3 41-2l14 55c-12 2-3 0-12 3l-7 4c-25-7-30-16-63-17zm-29-60c2 12 1 1-4 14 11 13 16 25 15 46-12 2-23 6-33 11-12 6-14 13-26 6-8-16 3-20-8-38l-20-27c17 4 24 8 42 8l34-20zm269 56c5-25 3-49 6-77h56c2 20-1 16-5 35-7 40-10 39-33 42-9 1-14 1-24 0zm-1e3 -80c-4 7-22 26-30 33l-60 1c-1 0-2 1-2 0-1-1-2-1-3-3l24-3c0-2 1-12 1-12 1-8 0-3 3-8l67-8zm870 12c16 2 19 8 33 9 40 3 57-5 87-26-5 28-6 52-6 86-13 9-24 9-46 10 0-14-3-24-6-36-4-18 0-24-15-25-7 13 0 42 1 59-28 0-34 7-65 1 4-32-3-30-7-61 10-12 10-10 24-17zm-1187 18c-9-7-17-17-23-23-9-8-15-19-18-32 17 1 24 6 45 6 15 0 28 1 43 4 68 10 67-2 72 21l-25 1c-13 11-16 17-37 13-16-3-27-8-44-8-6 12-3 9-13 18zm1440 22c1-24 1-22 8-39l13-34 12 2c1 25 1 9-6 18-14 20-7 46-27 53zm-57 17c7-12 7-13 11-30 8-38 1-18 4-37 2-15 26-35 43-34 7 15 8 8 5 19 0 1-1 4-2 5-7 20-16 15-25 50-3 12 0 7-1 18-11 7-18 8-35 9zm-696-28c11-14 2-54 3-75l18 1c-2 6-12 65-1 82 10-3 13-2 15-37 7 3 42 41 47 48-13 1-47-5-62-6l-65 1c12-17 7 4 15-16 8-21-28-66 11-65l8 69 11-2zm817-51c11-3 18-8 28-12l92-22c33-6 30-9 61 5 8 4 23 6 32 8 6 2 11 2 17 4l11 6c-53 15-85 17-120 27-30 8-75 0-105-9l-16-7zm-923-31c26 1 31-8 47 9l4 61-35-6c-3-23-11-42-16-64zm904 10c5-6-9-1 7-6l-7 6zm-554-537c6-21-7-25-31-23-108 8-218-12-330 51-13 7-18 30-29 45-3 4-2 3-6 6-18 15-15 43-22 63-7 22-8 177-8 215 0 17 0 33 10 43-5 14-3 0-5 14-2 10 4 3-3 16 11 16 14 57 22 83 10 14 32-9 39 63-20-3-33-23-44-39-32-44-31-34-52-52-12-10 4-3-11-14l-28 11c-21 5-53 27-65 44-20-3-69 2-91 7-39 10-183 6-223-5-20-5-44 0-63-2-11-2-16-7-30-9-29-3-27-4-49-18-8-5-13-8-16-15 33 15 27 10 40 15 21 8 48 10 72 15 58 13 199 21 250 15 13-2 24-1 36 0 20 1 69-11 69-32-13-1-16 3-28 5-9 2-23 2-34 2-65 2-138 8-201-8 0 0 1-1 2-1 1-1 2-1 3-2l14-3c7-1 10-1 16-3v-19c-21-3-30 4-50 4-3 15-7 14-4 23-36-2-69-5-103-10-12-2-35-9-47-11-47-11-20-37-17-62-15 0-23 14-29 26-13-2 2-4-17-3-26 10 4 59 11 71 6 9 31 28 43 33 2 25 9 29 21 49 37 58 24 29 76 40 34 8 82 15 118 9 20-3 23 2 39 1 26-1 52-1 75-9 10-3 26-6 39-5 8 22-4 32 10 83 10 35 3 49 25 60 31 4 39 7 73 6s35-5 60-13c6 7 7 11 14 19l15 15c28 24 143 32 164 29 14-3 13-6 30-4l54-3c8-2 12-4 22-7 50-15 59-7 64-63 25-11 28-23 20-70l78 4c12 1 50 1 46-27-33-2-50 10-86-5-20-13-11-42-48-43 6 23 22 32 27 47-22 3-42-5-53-23s-30-27-38-44c54 15 99-9 122 37 7 14 1 34 22 26 7-14-3-33-11-44 0 0 1-1 2-1 0 0 1-1 2-1l33-13c9 4 18 9 27 13-3 6-1 2-4 6l-4 4s1 2 2 2l1 2 16 21c10 18 21 35-5 42-47 14-44 42-66 54-23 12-27 33-26 61 1 40 16 55 52 68 31 12 60 18 97 20l27-6c8-1 16-7 24-9 29-9 82 5 114-15 28-16 59-35 60-70 1-22 1-39-9-54-16-25-81-24-86-43 20-3 61-6 79-5 58 0 46-5 80-6 38-1 48-11 71-13l35-9c6-2 9-5 16-7 4-2 14-4 15-4 25-12 15-40 31-53 7 10 5 36 7 49 18 3 32 5 48 9-4 8-24 9-45 26-31 26-96 13-133 35-20 12-29 24-27 52 29 37 52 33 105 35-7 9-13 13-29 14-7 17-1 2-11 15-12 33 42 41 62 47 19 7 75 7 95 4 31-5 62-10 92-18 23-5 37-16 52-28 13-11 4-1 19-7 5-10 7-19 5-30-26-9-60 1-84-15 10-6 26-4 37-5s19-1 28-2c18-3 43-12 64-13 9-6 3-5 14-8 10-2 7 0 18-5 14-6 20-8 32-14 41-19 177-30 222 15-1 9-1 9-7 15-2 2-9 8-13 11-36 27-109 29-150 26l-120-12c-7 12 2 6-10 10-4-8-4-17-13-20-12-3-5 1-9 2l-1 19c33 13 133 21 163 22 48 2 111-7 153-31l10-9c8-9 5-3 11-14 4-10 9-27 0-39-4-5-8-4-15-8l-4-2c-1-1-2-1-2-2h-2l-38-13c-9-3-77-6-87-5l-78 10c0-25 1-53-23-60l-53-12c-7 0-6 2-8 3l-1-8-74-5-1-37c15 0 16-4 21 8 2 6 1 8 2 11 4 9 0 3 8 8 8-6 1 7 7-8 4-9 2-19 3-28l21-4c1 16-2 15 7 27 13-3 2 3 12-7l7 14c21-2 10-24 15-47 2-9 6-15 1-26-3-6-15-9-16-12 0 0-1 0-2-1 25-21 57-19 62-55l-26 12c-19 13-45 21-50 47-9-9-13-9-27-11-11-1-20-3-28-6l15-6c10-1 4 0 14-3 27-9 60-15 62-46-17 0-19 9-29 15-37 21-74 13-109 21-13 2-7 4-14 8-9 6-9 3-19 6l-6 2c-31 10-66 12-96 23 2-18-4-3 9-13-5-19 2-33-22-43-20 15-4 17-9 35-103 6-47-4-99 24l-1-21c-17-7-31-26-41 4 6 4 11 6 18 12 5 4 1 1 7 5l9 7-27 10c-55 10-55-23-61-34-19 3-9 22-10 36-17 13-36 20-69 15 1-12 6-18-1-30-15 2-14 8-15 23l-24-4c-11 14-28 29-48 31-32 3-34 3-60-10l-2-26c-10 1-11 11-27 19-39 18-23 25-73 11-21-6-18-9-31-16-22 2-19 14-51 14-18 0-37-5-45-21 13 1 16-1 24-3 11-3 7 2 20 1-2-14-12-14-25-16-18-2-14-7-33-7 1 17 13 14-1 30-1 1-5 6-6 7-31-1-32 1-55-12-14-8-33-12-37-29l19-13-1-19c-15-1-44 18-73 21-27 4-53-27-79-12-10-4-20-10-26-22l54-52c11-9 21-14 32-22 28-22 37-25 65-6 13 9 16 15 26 25 30 30 31 49 58 42 1-16 4-11-8-22l-32-35c-14-18-28-30-49-44-23-14-30-13-52 2-41 28-85 57-113 100-4 6-5 14-8 20-3-5-6-39-9-50-4-19-3-36 3-52 7-20-3-30-9-44-8-21 1-191 6-222 6-36 2-23 18-39 9-10 13-28 26-33 9-4 11-3 21-10 31-21 74-23 111-31 49-12 112-6 165-8 20-1 35 6 54 0z"/>
 <path class="fil0" d="m9833 19585c10 10 5 15 6 31 2 36 39 42 56 31v12c-22 18-35 21-61 32l-1-106zm-393-162c24 4 14-8 41 3 19 7 70 4 88-3l36-14c14-4 28 0 44 1 68 3 19-7 88 12 29 8 46 29 75 20 25-8 53 3 72 17 2 12 0 16 1 27 2 26 9 12 6 63-3 38 10 39-7 82h-14c-5-7-6-6-13-12-5-37 5-29-10-63-15 0-15 2-23 10-25 24-11 25-10 63 0 29 0 66-6 94-3 14-4 27-13 37-21-8-14-25-16-48-1-24-5-32-8-52-4-24-2-55-16-73-6-8-13-6-25-6-29 14-22 86-22 115-18-1-20-32-22-52-4-54-16-34-16-53-23-2-24 5-34 18-25 31-5 91-17 125-19-6-5-52-10-70-1-4-4-8-7-17-4-17-11-24-17-43-15-5-29-5-46-6-9 15-24 24-25 50 0 18 10 67-12 67-18 0-6-19-20-52-9-22-3-31-7-53-15-3-21 5-29 14-5 4-8 8-11 12-5 5-6 4-11 9-18 16-2 54-25 61-12-11-9-30-15-47-5-14-9-35-14-45-14-2-15-3-25 4-21 16-25 25-30 52-5 3-5 1-10 5-3 2-6 5-9 7-22-13-20-51-47-56l-5 16 23 46c17 22 15 20 45 21 9-8 9-5 13-18 8-22 3-47 32-54l17 58c5 21 11 44 38 32 12-18 19-37 20-63 8-8 15-20 28-27-2 25 2 28 9 48 5 16 8 28 10 47 26 4 41 10 50-23 7-23 0-52 5-77l16-10c27-7 35 30 38 48 1 7 1 14 3 22 4 18-2 39 5 54 9 22 28 26 35 4l12-56c1-10-6-65 7-74 17-6 18 31 19 47 1 6 1 14 2 19l16 38c-8 2-20 3-27 7-12 6-5 6-15 16 22 0 41-7 59-14 1-1 2-1 2-2 1 0 2 0 2-1l11-6c2-22 5-11 7-26 5-28-8-70 8-94 20 4 14 29 16 47 2 17 8 37 10 53 6 38-9 83 46 75 35-52-11-65 80-89 7 11-1 5 10 9 14-8 4 3 11-13 7-17 9-30 9-49-2-2-5-3-8-6-4-3-3-2-5-5 7-32 9-87 7-123-1-22 4-20 4-37-3-8-17-30-22-34-10-9-29-8-42-11-29-7-28 1-47 0-22-1-20-8-39-15-35-11-49-17-91-15-37 2-63-11-93 6-49 27-118-17-191 7-24 9-36 6-62 17-4 2-16 6-20 7-26 6-20 9-37 16-23 8-31-5-34 23 27-4 41-4 64-15 28-14 65-18 95-28 14-5 31-4 45-1z"/>
 <path class="fil0" d="m10367 20021c-12 12-8 12-29 14-1-28-1-53 10-76l27-6-8 68zm-133-45l31-14 3 84-26-1c-5-12-8-52-8-69zm-44-2l18-1c7 13 11 55 9 74-17-2-18-5-27-12 13-8 5-25 0-61zm-53-62c5-25 29-20 42-48 4-8 13-22 18-29 7-8 4-3 11-12 7-11 1-6 10-9 4 8-1 15-2 23 2 20 46 31 65 0 4-6 2-5 5-12 4-8 3-4 6-7 12 13 15 39 49 46 33 7 34 24 50 48-28 47-73 15-85 13h-3c-2-1-4-1-6-1-10 0-20 6-31 12-19 10-13 16-40 16l-6-11c-18 2 1 1-26 11-1 1-7 5-8 5-14-20-7-11-4-33-20-7-28 0-45-12zm101-80c0-16 4-16 11-28l24 2c3 21-17 33-35 26zm208 75c13 0 20-1 32-4 51-13 162 0 176 41-24 34-117 44-147 33-7 9-6 11-17 13-12 2-18 0-26-5-16-10-24-13-47-10-8-4-9-5-19-8 0-10 0-15-3-22 6-11 10-17 15-27 7-16 1-16 0-33-14-9-3 1-11-11-33-47-47-28-59-33-21-8-16-72-96-60l-6 12c-32-2-29 2-45 21l-7 7c-25 27-19 39-33 46-9 5-12 4-19 11-38 41-6 56-4 61 1 31-3 29 7 56l19 43 16-3c1-24-23-37-26-91l20 3c1 12-4 14 1 28l11 57c-3 15-5 10-3 31 27 4 51 9 80 4l28-27c3-23-4-75 7-90 42-4 29 35 27 91-35 16-47 2-42 31 20-5 41-7 59-15 24-11 31-4 49-22-3-40 2-18 7-44 15 2 35 3 49 9 52 23 46 1 57-3 17-1 16 3 34 3 11 1 21 0 33 0 28-1 34-2 58-12 102-42 32-88-7-95-55-9-8-19-123-12-24 1-41 4-45 26z"/>
 <path class="fil0" d="m8474 19708c-5 10-14 4-18-4l18 4zm-227-5c2-4 39-4 48-4-7 6-16 6-27 13-10-3-13-2-21-9zm66-7l114 3c-2 18-12 20 13 30 11 4 29 11 39 11l-3 23 32 11c25-12 38 11 34-30l-21-3-6 9c-17-3-10-7-30-12 12-14 4 2 20-20 17-1 29 2 42 2l1-15c-20-11-11-1-46-17-29-14-190-16-230-12-47 4-70 11-103 15-16 2-37-2-47 11-32 0-84 12-108 29-21 16-27 4-27 32 12-5 18-4 28-10 9-5 10-7 22-10-5 7-5 5-5 16 23 19 18 3 22 22-9 3-20-2-36-3-12 13-16-2-20 24l30 1 6 9c33 1 33-21 41-28l6-21c-11-8-20-12-32-24l16-3c10 8 19 11 28 16 11 5 17 11 30 3 3-22-14-13-25-31l40-4c4 6 7 10 10 14-10 10-13 8-14 27 18 0 19-3 34-6l30-10c-1-19-10-23-25-29 7-6 1-4 11-7 37-12 47 27 94 26 11-14-2-1 34-19l1-20z"/>
 <path class="fil0" d="m9197 19675c-3-21-1-45 1-66 1-11 5-19 6-27 1-3 1-17 0-24-12 4-11 7-20 17-2 34-15 72-5 106-10 2-19 3-28 4-19 3-15 6-26 8-36 7-55 21-78 53-12 17-19 13-41 21-22 10-51 17-72 28-7 4-10 7-19 10-22 9-65 50-70 60-1 23-4 33 19 34 1-25 3-27 17-40 16-14 34-27 53-34 6-3 12-4 19-7 12-6 24-11 35-18 27-16 54-6 75-35 43-59 47-38 66-45 19-17 37-16 67-14 15 0 21 4 33 7 14 5 16 8 20 20 21-3 44 18 64 29 55 32 27-8 112 26 17 6 17 7 28 18 10 11 41 32 61 29l3-13-71-52c-11-4-9-3-21-10-22-13-46-10-70-10-18-1-46-18-60-30-18-15-18-3-36-21-19-18-38-8-62-24z"/>
 <path class="fil0" d="m8782 19420c44-6 52-20 100-22 1 1 1 2 2 2l74 36c-9 5-18 8-30 10l-37-20c-30-8-23-13-41-10-3 27 11 19 25 33-58-6-34-9-67-18-11 7-4 9-21 15l-12-15c2-3 4-6 7-11zm191 0c-10-4-12-9-22-13 11 1 18 2 22 13zm-223 7v13c13 20 25 28 55 30 13 1 27-1 40 0 15 1 46 5 63 2 8-1 6-3 14-5 19-4 78-3 74-54-3-32-43-30-54-30-16 0-20-5-33-6-69-7-62 2-108 16-9 3-23 4-30 10-10 8-1 3-8 12-5 6-6 2-13 12z"/>
 <path class="fil0" d="m10097 19920c21-6 4-15 17-52 14-38 22-7 26-45-25 3-13 6-28 13-10 4-11-2-26 1-10 1-16 3-26 7-16 7-9 2-19 13-14 1-29 5-43 0-11-5-18-17-33-16-9 0-26 11-37 11-2 0-22-4-22-4-13-7-2 1-8-15-14 3-20 11-22 28 10 8 8 10 23 11-4 20 15 86 28 99l13-7c2-30-18-56-17-92l22-3c1 10 2 16 5 25 16 45 5 73 31 68 5-15-8-77-13-91 11 6 33 10 38 15 6 20-1 55 11 74l12-9c4-26-4-45-1-70 7-4 26-14 36-16 1 34-9 49-13 79 25-1 24-43 29-60l8-22c14 3 10 11 7 24-10 35 1 33 2 34z"/>
 <path class="fil0" d="m10003 19731l19-14c5 2 13 4 19 7-1 9-4 13-8 21h-24l-6-14zm-94 39c1-14 4-19 4-34 1-17 2-23-7-34-22 13-5 46-16 71l13 6s1 0 1 1c-7 9-9 11-9 27 30-3 14-14 47-27 35-13 25-22 43-34 1 1 2 1 2 3 0 1 1 2 1 2 5 10 5 23 40 16 19-5 22-21 31-34l50 29c14 10 15 40 51 33v-17c-20-9-17-14-27-27-14-18-14-11-32-22-12-8-10-14-32-22-6-2-14-4-20-6-18-8-9-38-76 30-17 17-13 19-27 24-4 1-16 3-20 5-11 5-2 7-17 10z"/>
 <path class="fil0" d="m9028 19355c30 4 29 2 53 10 9 3 79 7 92 29 13 23 3 34 22 40 7-9 6-9 5-24 15 11 6 14 25 18 7-23-6-43-17-61-11 0-8-1-13 6-39-11-21-22-79-26-31-3-44-19-82-16l-6 24z"/>
 <path class="fil0" d="m8776 19567c4 3 1 2 8 4 24 9 137 8 147 5 21-5 45-14 70-14 15 0 55-8 68-16l1-15c-16 1-21 5-34 9l-82 7c-23 4-11 18-76 10-29-3-37 3-79-5-20-4-30-6-23 15z"/>
 <path class="fil0" d="m10108 19954c-25 4-6 9-41 15-17 3-29 6-47 6-19-1-31 3-48 0-21-4-27-4-44 3 6 17 7 19 38 19 58 1 75 6 137-18l5-25z"/>
 <path class="fil0" d="m9367 19566c-1 0-2 0-2 1 0 2-2 2-2 2l-10 11c1 1-1 6 20 8 32 2 114-7 140-16 1 0 2-1 3-1l6-4c12-7 13-7 16-19-91 8-45 19-171 18z"/>
 <path class="fil0" d="m8431 19793c7-5 8-3 10-11v-6c1-5 1 1 0-7-12-3-33 5-42 9-19 8-21 1-25 25 18 24 59 24 82 4l4-17c-18 0-12 4-29 3z"/>
 <path class="fil0" d="m8355 19741c6-2 4-2 8-5 0-14-1-14-8-22-18-1-17 10-32 13-19 5-19-1-35 12v20c11 7 37 18 53 14 1-25-2-4-10-25l24-7z"/>
 <path class="fil0" d="m8208 19778c12-8 10-5 8-23-31-10-62 10-68 32 10 9 26 8 41 13 22 8 24 6 29-13-3-3-6-4-10-9z"/>
 <path class="fil0" d="m10490 19966c4 3-6 3 9 3 24 0 47-21 59-28v-22c-24-10-56-17-59 17l40 2-39 18c-9 7-3-1-10 10z"/>
 <path class="fil0" d="m9478 19763c25-10 96-10 107-20 8-7 4-2 5-14l-126 15-2 11 16 8z"/>
 <path class="fil0" d="m9596 19573c9 6 20 7 32 5l65-14c9-6 15-13 17-24-10 1-25 9-59 14-44 6-41-4-55 19z"/>
 <path class="fil0" d="m8615 19455s-12-4-13 21c-2 18 30 55 49 57 11 1 18-7 12-18-2-5-17-13-21-17-29-23-13-18-27-43z"/>
 <path class="fil0" d="m9230 19748c-8-7-19-18-35-20-1 2-5 5-7 7-4 5-1 0-4 7 3 14 16 16 26 25 9 7 15 18 28 23 8-4 8-5 16-11-4-16-11-19-24-31z"/>
 <path class="fil0" d="m8287 19822c14 2 26 12 47 10l1-16c-12-10-27-12-41-17l-13 9c-16 6-28 6-36 34l35-8 7-12z"/>
 <path class="fil0" d="m8369 19769c17 2 29-1 42-10l2-25c-30-27-59 4-33 11l-5 5-2 2c-7 7-5 7-4 17z"/>
 <path class="fil0" d="m9663 20053c15 9 41 23 59 24l9-16c-18-13-36-14-51-27-5-4-2-3-8-5-8 6-10 10-9 24z"/>
 <path class="fil0" d="m9803 19549c22 1 45-25 65-46 0-1 1-1 1-2 9-10 6-13 5-21-14 0-8 2-19 12l-37 34c-12 10-10 5-15 23z"/>
 <path class="fil0" d="m8549 20038c16-3 5-10 35-24 8-4 12-5 20-9 18-10 8-16 7-18-23-10-75 23-62 51z"/>
 <path class="fil0" d="m9080 20083c4 3 18 7 26 10l-1 18c36-3 30-54-17-50-8 7-11 8-8 22z"/>
 <path class="fil0" d="m8232 19807c16 2 26-4 38-9l1-19c-10-5-25-14-40-14-9 9-9 5-10 21l13 6-2 15z"/>
 <path class="fil0" d="m9131 19819c23-11 19-55 16-76-28-3-12 23-21 48-4 12-3 17 5 28z"/>
 <path class="fil0" d="m9191 20096c-6 13-2 13 0 17 19-4 18-19 17-38l-13-10c-18 2-24 4-25 24 4 3 0 2 9 5 1 1 10 2 12 2z"/>
 <path class="fil0" d="m8803 20024c33 19 28 25 26 46 24-7 45-51-34-53l8 7z"/>
 <path class="fil0" d="m10010 20103l35 7c5-6 6-7 7-19l-10-10c-17 0-18 1-34 7l2 15z"/>
 <path class="fil0" d="m8144 19814c13-20-9-25-31-31-3 7-6 13-5 25l36 6z"/>
 <path class="fil0" d="m9191 19545c6-9 14-43 14-53-15 8-19 10-26 25-8 17-4 23 12 28z"/>
 <path class="fil0" d="m9141 19508c18 7 43-20 46-38-19 2-42 20-46 38z"/>
 <path class="fil0" d="m8804 20058c0 2-2 11-2 11-1 19-1 3 3 11 10-4 4 6 10-11 8-22-14-35-32-36l21 25z"/>
 <path class="fil0" d="m9909 20122c6-9 10-5 9-22l-22-1c-10 17-16 26 13 23z"/>
 <path class="fil0" d="m9083 19542c12 2 17-4 27-11v-15c-17-3-32 8-27 26z"/>
 <path class="fil0" d="m10123 20136c25-3 32-24 33-44-17 7-7 4-18 20-7 11-11 8-15 24z"/>
 <path class="fil0" d="m9192 19920c20-4 21-4 22-34-21 0-18 15-22 34z"/>
 <path class="fil0" d="m8703 19539c1 3 12 19 12 20 15 1 21-2 16-18-7-4-21-5-28-2z"/>
 <path class="fil0" d="m9934 20073c-21-2-23 0-24 21l22-1 2-20z"/>
 <path class="fil0" d="m9987 20110c5-14 4-7 1-21-15-1-21 10-19 25l18-4z"/>
 <path class="fil0" d="m9027 20111c8-3 8 1 12-9 3-10 1-20-9-16-1 0-18 8-3 25z"/>
 <path class="fil0" d="m8747 20084c4 2 3 6 14 0 12-6 14-13 7-22-8 3 0-2-5 6-13 19-5 2-16 16z"/>
 <path class="fil0" d="m9004 19901c7 3 22 8 30 6l2-13c-22 2-17 3-32 7z"/>
</svg>
